<svg width="40" height="40" viewBox="0 0 40 40" fill="none" xmlns="http://www.w3.org/2000/svg">
<path d="M33.3333 23.33C33.18 23.4383 30 26.8017 30 29.1633C30 31.6533 31.5817 33.2433 33.3333 33.33C34.8433 33.4033 36.6667 31.845 36.6667 29.1633C36.6667 26.6633 33.4867 23.4383 33.3333 23.33ZM5.69 21.6633C5.69 22.5533 6.03667 23.39 6.66667 24.02L15.9767 33.33C16.6067 33.96 17.4433 34.3067 18.3333 34.3067C19.2233 34.3067 20.06 33.96 20.69 33.33L32.3567 21.6633L31.1783 20.485L18.3333 7.64L14.5117 3.81833L12.155 6.175L15.9767 9.99666L6.66667 19.3067C6.03667 19.9367 5.69 20.7733 5.69 21.6633ZM18.3333 12.3533L27.6433 21.6633L18.3333 30.9733H18.335L18.3333 32.64V30.9733L9.02334 21.6633L18.3333 12.3533Z" fill="white" fill-opacity="0.8"/>
</svg>
