<svg width="50" height="50" viewBox="0 0 50 50" fill="none" xmlns="http://www.w3.org/2000/svg">
<path d="M45.2979 25.6896L26.5479 4.85624C25.7583 3.97708 24.2416 3.97708 23.4521 4.85624L4.70207 25.6896C4.43219 25.9887 4.25504 26.3599 4.19216 26.7578C4.12929 27.1558 4.18339 27.5635 4.3479 27.9312C4.68124 28.6833 5.42707 29.1667 6.24999 29.1667H10.4167V43.75C10.4167 44.3025 10.6361 44.8324 11.0268 45.2231C11.4175 45.6138 11.9475 45.8333 12.5 45.8333H18.75C19.3025 45.8333 19.8324 45.6138 20.2231 45.2231C20.6138 44.8324 20.8333 44.3025 20.8333 43.75V35.4167H29.1666V43.75C29.1666 44.3025 29.3861 44.8324 29.7768 45.2231C30.1675 45.6138 30.6974 45.8333 31.25 45.8333H37.5C38.0525 45.8333 38.5824 45.6138 38.9731 45.2231C39.3638 44.8324 39.5833 44.3025 39.5833 43.75V29.1667H43.75C44.1535 29.1684 44.5487 29.0527 44.8876 28.8336C45.2264 28.6146 45.4942 28.3017 45.6583 27.9331C45.8224 27.5645 45.8757 27.1561 45.8117 26.7578C45.7477 26.3594 45.5692 25.9882 45.2979 25.6896Z" fill="white"/>
</svg>
