<svg width="40" height="40" viewBox="0 0 40 40" fill="none" xmlns="http://www.w3.org/2000/svg">
<path d="M21.6634 36.6667H18.33V31.6667H21.6634V36.6667ZM30.6034 32.9633L27.0683 29.4283L29.425 27.0717L32.9617 30.6083L30.6067 32.9633H30.6034ZM9.39002 32.9633L7.03335 30.6067L10.5667 27.07L12.925 29.4267L9.39168 32.9617V32.9633H9.39002ZM19.9967 28.345C17.7835 28.3441 15.6612 27.4641 14.0969 25.8985C12.5325 24.3328 11.6541 22.2099 11.655 19.9967C11.6559 17.7834 12.536 15.6612 14.1016 14.0968C15.6672 12.5325 17.7901 11.6541 20.0034 11.655C21.0992 11.6554 22.1843 11.8717 23.1966 12.2915C24.2089 12.7113 25.1286 13.3263 25.9032 14.1016C26.6778 14.8768 27.2921 15.797 27.7111 16.8096C28.13 17.8222 28.3455 18.9075 28.345 20.0033C28.3446 21.0992 28.1283 22.1843 27.7085 23.1966C27.2887 24.2089 26.6737 25.1286 25.8985 25.9032C25.1233 26.6778 24.2031 27.2921 23.1904 27.7111C22.1778 28.13 21.0926 28.3454 19.9967 28.345ZM19.9967 14.9883C19.3385 14.9888 18.6869 15.1188 18.0791 15.3711C17.4712 15.6234 16.9189 15.9929 16.4539 16.4586C15.9888 16.9243 15.62 17.477 15.3686 18.0852C15.1171 18.6934 14.9879 19.3452 14.9884 20.0033C14.9888 20.6615 15.1189 21.3131 15.3711 21.921C15.6234 22.5288 15.9929 23.0811 16.4586 23.5462C16.9243 24.0112 17.477 24.38 18.0852 24.6315C18.6934 24.8829 19.3452 25.0121 20.0034 25.0117C21.3325 25.0108 22.6069 24.4819 23.5462 23.5414C24.4854 22.6009 25.0126 21.3259 25.0117 19.9967C25.0108 18.6675 24.4819 17.3931 23.5414 16.4539C22.601 15.5146 21.3259 14.9875 19.9967 14.9883ZM36.6634 21.6667H31.6634V18.3333H36.6634V21.6667ZM8.33002 21.6667H3.33002V18.3333H8.33002V21.6667ZM29.4233 12.93L27.0683 10.5717L30.6034 7.03501L32.9617 9.39334L29.425 12.9283L29.4233 12.93ZM10.5684 12.93L7.03502 9.39501L9.39335 7.03834L12.9267 10.575L10.57 12.9283V12.93H10.5684ZM21.6634 8.33334H18.33V3.33334H21.6634V8.33334Z" fill="white" fill-opacity="0.8"/>
</svg>
