<svg width="40" height="40" viewBox="0 0 40 40" fill="none" xmlns="http://www.w3.org/2000/svg">
<rect width="40" height="40" fill="white" fill-opacity="0.8"/>
<path d="M5 20C4.99959 17.2874 5.73476 14.6255 7.12724 12.2976C8.51973 9.96968 10.5174 8.06295 12.9076 6.78037C15.2978 5.49779 17.9911 4.88737 20.7007 5.0141C23.4104 5.14082 26.0349 5.99994 28.295 7.5H20C16.6848 7.5 13.5054 8.81696 11.1612 11.1612C8.81696 13.5054 7.5 16.6848 7.5 20C7.5 23.3152 8.81696 26.4946 11.1612 28.8388C13.5054 31.183 16.6848 32.5 20 32.5V30H31.18C29.1547 32.2642 26.4897 33.8601 23.5376 34.5765C20.5855 35.2929 17.4854 35.0961 14.6476 34.0122C11.8098 32.9282 9.36796 31.0082 7.64523 28.5061C5.92251 26.004 5.00008 23.0378 5 20ZM30.375 9.16667H20V11.6667H32.475C31.8675 10.7598 31.1634 9.92156 30.375 9.16667ZM20 13.3333H33.44C33.8367 14.1283 34.1633 14.965 34.4133 15.8333H20V13.3333ZM34.7933 17.5H20V20H35C35 19.1483 34.9283 18.3133 34.7933 17.5ZM20 21.6667H34.9083C34.8148 22.5126 34.6492 23.349 34.4133 24.1667H20V21.6667ZM33.8233 25.8333H20V28.3333H32.475C33.0033 27.5447 33.4553 26.7076 33.825 25.8333H33.8233Z" fill="black"/>
</svg>
