<svg width="40" height="40" viewBox="0 0 40 40" fill="none" xmlns="http://www.w3.org/2000/svg">
<path d="M17.34 29.61C17.3646 29.6338 17.388 29.6588 17.41 29.685C16.9942 29.5739 16.5861 29.4358 16.1883 29.2717C16.3932 29.2269 16.6061 29.2344 16.8074 29.2936C17.0087 29.3527 17.1918 29.4615 17.34 29.61ZM14.06 27.8417C14.0153 27.8863 13.9674 27.9275 13.9166 27.965C13.2612 27.4628 12.6701 26.8817 12.1566 26.235C12.2566 26.0936 12.3848 25.9745 12.5333 25.8852C12.6817 25.796 12.847 25.7385 13.0188 25.7165C13.1906 25.6946 13.3651 25.7085 13.5312 25.7575C13.6973 25.8066 13.8514 25.8895 13.9837 26.0013C14.1161 26.113 14.2238 26.251 14.3 26.4065C14.3762 26.562 14.4192 26.7317 14.4264 26.9047C14.4335 27.0777 14.4047 27.2504 14.3416 27.4117C14.2785 27.573 14.1826 27.7194 14.06 27.8417ZM10.6183 22.7467C10.797 22.9253 10.9173 23.154 10.9634 23.4024C11.0095 23.6509 10.9793 23.9074 10.8766 24.1383C10.6402 23.6158 10.4495 23.0738 10.3066 22.5183C10.4217 22.5778 10.5269 22.6549 10.6183 22.7467ZM10.6183 17.7917C10.4943 17.9158 10.3455 18.0123 10.1816 18.075C10.3086 17.4273 10.5007 16.7941 10.755 16.185C10.9255 16.4258 11.0054 16.7193 10.9803 17.0133C10.9553 17.3074 10.8271 17.5831 10.6183 17.7917ZM12.2916 14.5117C12.1544 14.3746 12.0511 14.2074 11.99 14.0233C12.4316 13.435 12.9366 12.8967 13.495 12.4183C13.6806 12.4673 13.8526 12.5583 13.9974 12.6844C14.1422 12.8105 14.256 12.9682 14.33 13.1454C14.404 13.3226 14.4361 13.5145 14.424 13.7061C14.4118 13.8977 14.3557 14.084 14.26 14.2504C14.1642 14.4168 14.0314 14.559 13.8719 14.6658C13.7123 14.7726 13.5303 14.8412 13.3399 14.8664C13.1496 14.8915 12.956 14.8724 12.7742 14.8106C12.5924 14.7488 12.4273 14.6459 12.2916 14.51V14.5117ZM15.5733 11.2783C15.5233 11.2284 15.4776 11.1743 15.4366 11.1167C16.1555 10.7477 16.9167 10.4679 17.7033 10.2833C17.7274 10.5396 17.6716 10.7971 17.5437 11.0204C17.4158 11.2438 17.222 11.4222 16.9888 11.5311C16.7556 11.64 16.4944 11.6742 16.241 11.629C15.9876 11.5837 15.7544 11.4613 15.5733 11.2783ZM22.145 29.7883C22.6616 29.675 23.1616 29.5217 23.645 29.3333C23.3805 29.2267 23.0876 29.2137 22.8148 29.2965C22.542 29.3793 22.3056 29.5528 22.145 29.7883ZM25.885 28.1C26.5583 27.61 27.1683 27.0367 27.6983 26.395C27.5911 26.2586 27.4566 26.1461 27.3035 26.0645C27.1504 25.9829 26.982 25.9341 26.809 25.9211C26.6359 25.9082 26.4621 25.9314 26.2986 25.9893C26.135 26.0472 25.9853 26.1385 25.859 26.2574C25.7327 26.3763 25.6325 26.5202 25.5648 26.68C25.4971 26.8397 25.4634 27.0118 25.4658 27.1853C25.4683 27.3587 25.5068 27.5298 25.579 27.6876C25.6511 27.8453 25.7553 27.9864 25.885 28.1017V28.1ZM28.9416 24.4867C29.2764 23.818 29.5341 23.1135 29.71 22.3867C29.4793 22.4128 29.2605 22.5027 29.078 22.6462C28.8955 22.7897 28.7566 22.9812 28.6768 23.1992C28.5971 23.4172 28.5796 23.6532 28.6264 23.8806C28.6731 24.108 28.7823 24.3178 28.9416 24.4867ZM29.8183 18.155C29.6737 17.389 29.4393 16.6428 29.12 15.9317C28.9226 16.0889 28.7775 16.3022 28.7036 16.5435C28.6298 16.7848 28.6307 17.0428 28.7063 17.2836C28.7819 17.5244 28.9285 17.7366 29.127 17.8924C29.3255 18.0483 29.5665 18.1404 29.8183 18.1567V18.155ZM27.9266 13.9333C27.4958 13.3724 27.0069 12.8585 26.4683 12.4C26.2492 12.4441 26.0458 12.5461 25.8795 12.6955C25.7132 12.8448 25.59 13.036 25.5227 13.2492C25.4554 13.4624 25.4465 13.6897 25.497 13.9075C25.5474 14.1253 25.6553 14.3255 25.8094 14.4874C25.9636 14.6493 26.1583 14.7669 26.3734 14.828C26.5884 14.889 26.8159 14.8913 27.0321 14.8345C27.2483 14.7778 27.4453 14.6641 27.6027 14.5053C27.76 14.3465 27.8719 14.1484 27.9266 13.9317V13.9333ZM24.0616 11.2783C24.1484 11.1918 24.222 11.093 24.28 10.985C23.5356 10.6312 22.7502 10.3714 21.9416 10.2117C21.9033 10.4716 21.9479 10.737 22.069 10.9702C22.1902 11.2034 22.3817 11.3925 22.6165 11.5106C22.8512 11.6287 23.1172 11.6698 23.3766 11.6281C23.636 11.5864 23.8757 11.464 24.0616 11.2783ZM20.8766 12.7433C20.9995 12.8578 21.098 12.9958 21.1663 13.1491C21.2346 13.3024 21.2713 13.468 21.2743 13.6358C21.2773 13.8036 21.2464 13.9704 21.1835 14.126C21.1206 14.2816 21.0271 14.423 20.9084 14.5417C20.7897 14.6604 20.6483 14.754 20.4926 14.8169C20.337 14.8797 20.1703 14.9106 20.0024 14.9077C19.8346 14.9047 19.6691 14.868 19.5157 14.7996C19.3624 14.7313 19.2244 14.6328 19.11 14.51C18.8892 14.273 18.769 13.9596 18.7747 13.6358C18.7804 13.312 18.9116 13.003 19.1406 12.774C19.3696 12.5449 19.6786 12.4138 20.0024 12.408C20.3263 12.4023 20.6397 12.5225 20.8766 12.7433ZM17.34 16.025C17.4628 16.1394 17.5613 16.2774 17.6296 16.4308C17.6979 16.5841 17.7347 16.7496 17.7376 16.9175C17.7406 17.0853 17.7097 17.252 17.6468 17.4077C17.584 17.5633 17.4904 17.7047 17.3717 17.8234C17.253 17.9421 17.1116 18.0357 16.956 18.0985C16.8003 18.1614 16.6336 18.1923 16.4658 18.1893C16.2979 18.1864 16.1324 18.1496 15.9791 18.0813C15.8257 18.013 15.6877 17.9145 15.5733 17.7917C15.3525 17.5547 15.2323 17.2413 15.238 16.9175C15.2437 16.5936 15.3749 16.2847 15.6039 16.0556C15.833 15.8266 16.1419 15.6954 16.4658 15.6897C16.7896 15.684 17.103 15.8042 17.34 16.025ZM14.06 21.3283C14.1761 21.2122 14.2682 21.0744 14.331 20.9227C14.3939 20.771 14.4262 20.6084 14.4262 20.4442C14.4262 20.28 14.3939 20.1174 14.331 19.9657C14.2682 19.814 14.1761 19.6761 14.06 19.56C13.9439 19.4439 13.806 19.3518 13.6543 19.2889C13.5026 19.2261 13.34 19.1938 13.1758 19.1938C13.0116 19.1938 12.849 19.2261 12.6973 19.2889C12.5456 19.3518 12.4078 19.4439 12.2916 19.56C12.0708 19.797 11.9506 20.1104 11.9563 20.4342C11.9621 20.758 12.0932 21.067 12.3223 21.296C12.5513 21.5251 12.8603 21.6562 13.1841 21.662C13.5079 21.6677 13.8213 21.5475 14.0583 21.3267L14.06 21.3283ZM17.34 22.7467C17.4628 22.8611 17.5613 22.9991 17.6296 23.1524C17.6979 23.3058 17.7347 23.4713 17.7376 23.6391C17.7406 23.807 17.7097 23.9737 17.6468 24.1293C17.584 24.285 17.4904 24.4264 17.3717 24.5451C17.253 24.6638 17.1116 24.7573 16.956 24.8202C16.8003 24.8831 16.6336 24.9139 16.4658 24.911C16.2979 24.908 16.1324 24.8713 15.9791 24.803C15.8257 24.7346 15.6877 24.6361 15.5733 24.5133C15.3525 24.2764 15.2323 23.963 15.238 23.6391C15.2437 23.3153 15.3749 23.0063 15.6039 22.7773C15.833 22.5483 16.1419 22.4171 16.4658 22.4114C16.7896 22.4057 17.103 22.5259 17.34 22.7467ZM20.8766 21.3283C20.9928 21.2122 21.0849 21.0744 21.1477 20.9227C21.2105 20.771 21.2429 20.6084 21.2429 20.4442C21.2429 20.28 21.2105 20.1174 21.1477 19.9657C21.0849 19.814 20.9928 19.6761 20.8766 19.56C20.7605 19.4439 20.6227 19.3518 20.471 19.2889C20.3193 19.2261 20.1567 19.1938 19.9925 19.1938C19.8283 19.1938 19.6657 19.2261 19.514 19.2889C19.3623 19.3518 19.2244 19.4439 19.1083 19.56C18.8875 19.797 18.7673 20.1104 18.773 20.4342C18.7787 20.758 18.9099 21.067 19.1389 21.296C19.368 21.5251 19.6769 21.6562 20.0008 21.662C20.3246 21.6677 20.638 21.5475 20.875 21.3267L20.8766 21.3283ZM24.0616 16.025C24.1845 16.1394 24.283 16.2774 24.3513 16.4308C24.4196 16.5841 24.4563 16.7496 24.4593 16.9175C24.4623 17.0853 24.4314 17.252 24.3685 17.4077C24.3056 17.5633 24.2121 17.7047 24.0934 17.8234C23.9747 17.9421 23.8333 18.0357 23.6776 18.0985C23.522 18.1614 23.3553 18.1923 23.1874 18.1893C23.0196 18.1864 22.8541 18.1496 22.7007 18.0813C22.5474 18.013 22.4094 17.9145 22.295 17.7917C22.0742 17.5547 21.954 17.2413 21.9597 16.9175C21.9654 16.5936 22.0966 16.2847 22.3256 16.0556C22.5546 15.8266 22.8636 15.6954 23.1874 15.6897C23.5113 15.684 23.8247 15.8042 24.0616 16.025ZM27.5983 21.28C27.7176 21.1646 27.8128 21.0267 27.8782 20.8741C27.9437 20.7216 27.9781 20.5576 27.9794 20.3916C27.9808 20.2256 27.9491 20.061 27.8862 19.9074C27.8233 19.7538 27.7304 19.6143 27.613 19.497C27.4955 19.3797 27.3559 19.2869 27.2023 19.2242C27.0486 19.1614 26.884 19.1298 26.718 19.1314C26.5521 19.1329 26.3881 19.1674 26.2356 19.233C26.0831 19.2986 25.9452 19.3939 25.83 19.5133C25.6092 19.7503 25.489 20.0637 25.4947 20.3875C25.5004 20.7114 25.6316 21.0203 25.8606 21.2494C26.0896 21.4784 26.3986 21.6096 26.7224 21.6153C27.0463 21.621 27.3597 21.5008 27.5966 21.28H27.5983ZM24.0383 22.8167C24.1611 22.9311 24.2596 23.0691 24.3279 23.2224C24.3963 23.3758 24.433 23.5413 24.436 23.7091C24.4389 23.877 24.408 24.0437 24.3452 24.1993C24.2823 24.355 24.1887 24.4964 24.07 24.6151C23.9513 24.7338 23.8099 24.8273 23.6543 24.8902C23.4987 24.9531 23.3319 24.9839 23.1641 24.981C22.9963 24.978 22.8307 24.9413 22.6774 24.873C22.5241 24.8047 22.3861 24.7061 22.2716 24.5833C22.0508 24.3464 21.9306 24.033 21.9363 23.7091C21.9421 23.3853 22.0732 23.0763 22.3023 22.8473C22.5313 22.6183 22.8403 22.4871 23.1641 22.4814C23.4879 22.4757 23.8013 22.5959 24.0383 22.8167ZM20.5266 27.8417C20.6495 27.7272 20.748 27.5892 20.8163 27.4359C20.8846 27.2826 20.9213 27.117 20.9243 26.9492C20.9273 26.7814 20.8964 26.6147 20.8335 26.459C20.7706 26.3034 20.6771 26.162 20.5584 26.0433C20.4397 25.9246 20.2983 25.831 20.1426 25.7681C19.987 25.7053 19.8203 25.6744 19.6524 25.6773C19.4846 25.6803 19.3191 25.717 19.1657 25.7854C19.0124 25.8537 18.8744 25.9522 18.76 26.075C18.5392 26.312 18.419 26.6254 18.4247 26.9492C18.4304 27.273 18.5616 27.582 18.7906 27.811C19.0196 28.0401 19.3286 28.1712 19.6524 28.177C19.9763 28.1827 20.2897 28.0625 20.5266 27.8417Z" fill="white"/>
<path fill-rule="evenodd" clip-rule="evenodd" d="M36.6666 20C36.6666 29.205 29.205 36.6667 20 36.6667C10.795 36.6667 3.33331 29.205 3.33331 20C3.33331 10.795 10.795 3.33334 20 3.33334C29.205 3.33334 36.6666 10.795 36.6666 20ZM33.3333 20C33.3333 23.5362 31.9286 26.9276 29.4281 29.4281C26.9276 31.9286 23.5362 33.3333 20 33.3333C16.4638 33.3333 13.0724 31.9286 10.5719 29.4281C8.0714 26.9276 6.66665 23.5362 6.66665 20C6.66665 16.4638 8.0714 13.0724 10.5719 10.5719C13.0724 8.07143 16.4638 6.66667 20 6.66667C23.5362 6.66667 26.9276 8.07143 29.4281 10.5719C31.9286 13.0724 33.3333 16.4638 33.3333 20Z" fill="white"/>
</svg>
