<svg width="40" height="40" viewBox="0 0 40 40" fill="none" xmlns="http://www.w3.org/2000/svg">
<g clip-path="url(#clip0_2_52)">
<path d="M34.4533 16C31.0483 16 28.6117 18.31 28.3167 21.6933H27.21C26.7983 21.6933 26.5517 21.9333 26.5517 22.3333C26.5517 22.7333 26.7983 22.9733 27.21 22.9733H28.3117C28.565 26.4567 31.065 28.6783 34.8367 28.6783C36.41 28.6783 37.645 28.4383 38.7233 27.9233C38.9867 27.7983 39.285 27.5617 39.21 27.1383C39.2006 27.0568 39.1733 26.9784 39.1301 26.9087C39.0869 26.839 39.0288 26.7797 38.96 26.735C38.7867 26.6267 38.5433 26.615 38.2567 26.7017C38.0596 26.7637 37.864 26.8304 37.67 26.9017C36.98 27.145 36.385 27.3567 35.005 27.3567C32.0883 27.3567 30.1583 25.6517 30.085 23.015V22.9733H39.1583C39.68 22.9733 39.9783 22.7 40 22.2017V22.105C39.99 16.4417 35.7533 16 34.4533 16ZM38.4133 21.6933H30.08L30.0867 21.635C30.2883 19.0017 32.0217 17.3 34.5017 17.3C36.3917 17.3 38.4133 18.4417 38.4133 21.6433V21.6933ZM15.9033 17.035C15.9033 16.4767 15.5783 16.145 15.0367 16.145C14.495 16.145 14.17 16.4783 14.17 17.035V21.6933H15.9033V17.035ZM23.0533 23.3967C23.0533 25.6033 21.4733 27.3317 19.4533 27.3317C17.065 27.3317 15.9033 26.06 15.9033 23.4433V22.9733H14.17V23.54C14.17 26.95 15.7783 28.6783 18.95 28.6783C20.8167 28.6783 22.1883 27.8683 23.0217 26.27L23.055 26.21V27.645C23.055 28.2017 23.3767 28.535 23.92 28.535C24.4617 28.535 24.7867 28.2017 24.7867 27.645V22.9733H23.0533V23.3967ZM23.92 16.145C23.3767 16.145 23.0533 16.4783 23.0533 17.035V21.6933H24.7867V17.035C24.7867 16.4767 24.4617 16.145 23.92 16.145ZM6.075 16C3.30833 16 2.225 17.7867 1.95667 18.3333L1.73167 18.7967V12.2583C1.73167 11.68 1.4 11.3217 0.865 11.3217C0.331667 11.3217 0 11.68 0 12.2583V21.6933H1.73167V21.6683C1.73167 19.5867 2.93167 17.3483 5.57167 17.3483C7.72167 17.3483 8.90667 18.7283 8.90667 21.235V21.6933H10.64V21.2833C10.64 17.8767 9.01833 16 6.075 16ZM0 27.5967C0 28.175 0.331667 28.535 0.866667 28.535C1.4 28.535 1.73167 28.175 1.73167 27.5967V22.9733H0V27.5967ZM8.90667 27.5967C8.90667 28.175 9.24 28.535 9.77333 28.535C10.3067 28.535 10.64 28.175 10.64 27.5967V22.9733H8.90667V27.5967Z" fill="white" fill-opacity="0.8"/>
</g>
<defs>
<clipPath id="clip0_2_52">
<rect width="40" height="40" fill="white"/>
</clipPath>
</defs>
</svg>
